<svg width="28" height="28" viewBox="0 0 28 28" fill="none" xmlns="http://www.w3.org/2000/svg">
<g id="Instagram--Streamline-Core.svg">
<g id="instagram">
<g id="Group 4546">
<path id="Vector" d="M20.1914 7.7664C19.9349 7.7664 19.7271 7.55849 19.7271 7.30202C19.7271 7.04556 19.9349 6.83765 20.1914 6.83765" stroke="#161616" stroke-width="1.71" stroke-linecap="round" stroke-linejoin="round"/>
<path id="Vector_2" d="M20.1914 7.7664C20.4479 7.7664 20.6558 7.55849 20.6558 7.30202C20.6558 7.04556 20.4479 6.83765 20.1914 6.83765" stroke="#161616" stroke-width="1.71" stroke-linecap="round" stroke-linejoin="round"/>
</g>
<path id="Rectangle 2" d="M2.59174 7.37141C2.59174 4.73185 4.73153 2.59204 7.37111 2.59204H20.1162C22.7557 2.59204 24.8955 4.73185 24.8955 7.37141V20.1164C24.8955 22.7559 22.7557 24.8958 20.1162 24.8958H7.37111C4.73153 24.8958 2.59174 22.7559 2.59174 20.1164V7.37141Z" stroke="#161616" stroke-width="1.71" stroke-linecap="round" stroke-linejoin="round"/>
<path id="Ellipse 11" d="M9.00702 13.7437C9.00702 14.9999 9.50605 16.2047 10.3943 17.093C11.2826 17.9813 12.4874 18.4803 13.7436 18.4803C14.9999 18.4803 16.2047 17.9813 17.0929 17.093C17.9812 16.2047 18.4803 14.9999 18.4803 13.7437C18.4803 12.4875 17.9812 11.2827 17.0929 10.3944C16.2047 9.50612 14.9999 9.00708 13.7436 9.00708C12.4874 9.00708 11.2826 9.50612 10.3943 10.3944C9.50605 11.2827 9.00702 12.4875 9.00702 13.7437Z" stroke="#161616" stroke-width="1.71" stroke-linecap="round" stroke-linejoin="round"/>
</g>
</g>
</svg>
