<svg width="33" height="24" viewBox="0 0 33 24" fill="none" xmlns="http://www.w3.org/2000/svg">
<g id="Group 4547">
<path id="Vector" d="M33 8.74219V14.3128C32.9986 15.4167 32.6323 16.4956 31.9474 17.413C31.2625 18.3304 30.2897 19.0452 29.1519 19.4671C28.9926 19.3116 28.8205 19.1671 28.6371 19.0348C27.9709 18.5583 27.1696 18.2581 26.3235 18.168C25.4773 18.0779 24.6198 18.2015 23.8478 18.5249C23.0758 18.8483 22.4198 19.3586 21.9539 19.9983C21.4879 20.638 21.2306 21.3817 21.2107 22.1455C21.2107 22.1775 21.2107 22.2084 21.2107 22.2414C21.2105 22.4041 21.2214 22.5666 21.2434 22.7281C21.25 22.7888 21.2607 22.8491 21.2696 22.9077C21.2761 22.9439 21.2838 22.9802 21.2916 23.0143C19.8943 23.3624 18.4507 23.5381 17.0006 23.5367H16.0012C14.5506 23.5378 13.1065 23.3616 11.709 23.0127C11.8868 22.1853 11.7749 21.3289 11.3886 20.5608C11.3291 20.4382 11.2596 20.3172 11.1853 20.2C11.1342 20.1205 11.0812 20.0401 11.0218 19.9649C10.6052 19.4023 10.0397 18.941 9.37578 18.6221C8.71188 18.3032 7.97026 18.1366 7.21708 18.1372C6.87983 18.1365 6.54357 18.1701 6.21477 18.2374C5.53821 18.3722 4.90511 18.6442 4.36413 19.0327C4.17983 19.1643 4.00748 19.3088 3.84871 19.4649C2.7107 19.0432 1.73767 18.3285 1.05262 17.4111C0.367578 16.4936 0.00126825 15.4147 0 14.3106V8.74219H7.33716C8.95689 8.78038 10.496 9.38397 11.6268 10.4244C12.7576 11.4649 13.3907 12.86 13.3914 14.3128H19.6044C19.6051 12.8599 20.2383 11.4647 21.3692 10.4242C22.5002 9.38377 24.0394 8.78025 25.6593 8.74219H33Z" fill="#80C0C0"/>
<path id="Vector_2" d="M27.5413 22.3056C27.5407 22.6711 27.3881 23.0231 27.1138 23.2918C26.8396 23.5604 26.4637 23.7261 26.0606 23.756C25.6576 23.7858 25.2569 23.6777 24.9379 23.4531C24.6189 23.2284 24.4049 22.9036 24.3384 22.543C24.3384 22.522 24.3307 22.5011 24.3289 22.4785C24.3209 22.4211 24.3167 22.3634 24.3164 22.3056C24.3156 22.2939 24.3156 22.2823 24.3164 22.2707C24.3186 22.2034 24.3253 22.1363 24.3366 22.0698C24.3887 21.7807 24.5359 21.5126 24.759 21.3003C24.982 21.088 25.2707 20.9414 25.5873 20.8796C25.904 20.8178 26.2338 20.8437 26.5339 20.9538C26.8341 21.064 27.0905 21.2533 27.2698 21.4972C27.29 21.5241 27.3084 21.5509 27.3292 21.5815C27.3557 21.623 27.3797 21.6656 27.4011 21.7094C27.4945 21.8967 27.5424 22.1 27.5413 22.3056Z" fill="#B4252B"/>
<path id="Vector_3" d="M8.93246 22.2682V22.3031C8.93276 22.3608 8.92919 22.4185 8.92175 22.4758C8.92175 22.4967 8.91581 22.5177 8.91224 22.5386C8.8473 22.8998 8.63389 23.2257 8.31454 23.4513C7.9952 23.6769 7.59335 23.7857 7.18906 23.756C6.78477 23.7263 6.40773 23.5603 6.13305 23.291C5.85837 23.0218 5.70622 22.669 5.70692 22.3031C5.7061 22.0978 5.75437 21.8947 5.84843 21.7077C5.86995 21.6633 5.89437 21.6202 5.92156 21.5784C5.93861 21.55 5.95727 21.5225 5.97745 21.4958C6.17623 21.226 6.46919 21.0238 6.80984 20.9213C6.97482 20.8721 7.14742 20.847 7.32117 20.8468C7.70392 20.8469 8.07416 20.9698 8.3658 21.1934C8.65745 21.417 8.85154 21.7269 8.91343 22.0676C8.92549 22.1339 8.93186 22.201 8.93246 22.2682Z" fill="#B4252B"/>
<path id="Vector_4" d="M19.6015 8.74222C21.2034 7.1957 22.2327 5.23712 22.5466 3.13824H25.8045V6.24739C23.4927 6.45151 21.3163 7.32683 19.6015 8.74222Z" fill="#B4252B"/>
<path id="Vector_5" d="M7.19568 8.74219C7.19552 8.00631 7.35585 7.27762 7.66751 6.59772C7.97917 5.91782 8.43606 5.30003 9.01208 4.77964C9.5881 4.25925 10.272 3.84645 11.0246 3.56481C11.7773 3.28317 12.584 3.13822 13.3987 3.13822V8.74219H7.19568Z" fill="#17626E"/>
<path id="Vector_6" d="M19.6015 3.13824C19.6015 4.62451 18.948 6.0499 17.7847 7.10085C16.6214 8.1518 15.0436 8.74222 13.3985 8.74222V3.13824L19.6015 3.13824Z" fill="#17626E"/>
<path id="Vector_7" d="M19.6015 14.3462C19.6015 12.8599 20.255 11.4345 21.4183 10.3836C22.5816 9.33263 24.1594 8.74222 25.8045 8.74222V14.3462H19.6015Z" fill="#17626E"/>
<path id="Vector_8" d="M7.19568 8.74219C8.84087 8.74233 10.4186 9.33281 11.5819 10.3837C12.7452 11.4347 13.3987 12.86 13.3987 14.3462H7.19568V8.74219Z" fill="#17626E"/>
<path id="Vector_9" d="M25.8045 14.3462C25.8039 15.8322 25.1502 17.2572 23.987 18.308C22.8239 19.3588 21.2465 19.9495 19.6015 19.9502V14.3462H25.8045Z" fill="#17626E"/>
<path id="Vector_10" d="M19.6015 14.3462H13.3985V19.9502H19.6015V14.3462Z" fill="#17626E"/>
<path id="Vector_11" d="M13.3987 14.3462V19.9502C11.9632 19.9521 10.5718 19.5017 9.46426 18.6765C9.30765 18.5602 9.15696 18.4369 9.01458 18.3082C8.43727 17.7888 7.97936 17.1713 7.6672 16.4914C7.35504 15.8114 7.19479 15.0823 7.19568 14.3462H13.3987Z" fill="#17626E"/>
<path id="Vector_12" d="M22.5789 0V1.73067H27.362V6.05229H29.2781V0H22.5789Z" fill="#17626E"/>
</g>
</svg>
